<?xml version="1.0" encoding="UTF-8"?>
<!DOCTYPE svg PUBLIC "-//W3C//DTD SVG 1.1//EN" "http://www.w3.org/Graphics/SVG/1.1/DTD/svg11.dtd">
<svg xmlns="http://www.w3.org/2000/svg" version="1.1" width="259px" height="194px" style="shape-rendering:geometricPrecision; text-rendering:geometricPrecision; image-rendering:optimizeQuality; fill-rule:evenodd; clip-rule:evenodd" xmlns:xlink="http://www.w3.org/1999/xlink">
<g><path style="opacity:1" fill="#fefefe" d="M -0.5,-0.5 C 85.8333,-0.5 172.167,-0.5 258.5,-0.5C 258.5,64.1667 258.5,128.833 258.5,193.5C 172.167,193.5 85.8333,193.5 -0.5,193.5C -0.5,128.833 -0.5,64.1667 -0.5,-0.5 Z"/></g>
<g><path style="opacity:1" fill="#f34f65" d="M 155.5,44.5 C 154.127,44.3433 152.793,44.51 151.5,45C 152.973,45.7096 153.64,46.8762 153.5,48.5C 145.447,38.9265 135.447,35.5932 123.5,38.5C 139.739,36.6044 150.406,43.271 155.5,58.5C 153.616,58.2882 152.283,57.2882 151.5,55.5C 150.236,59.18 150.236,62.8466 151.5,66.5C 150.528,68.7035 148.861,70.0368 146.5,70.5C 151.915,59.9872 149.915,51.1539 140.5,44C 127.226,37.2214 117.059,40.3881 110,53.5C 108.595,60.3696 109.761,66.7029 113.5,72.5C 111.908,73.6016 111.075,72.935 111,70.5C 110.424,72.3774 110.591,74.2108 111.5,76C 111.056,77.7618 110.556,77.5951 110,75.5C 107.842,68.5732 107.008,61.5732 107.5,54.5C 107.043,53.7025 106.376,53.3691 105.5,53.5C 106.716,51.5198 107.549,49.5198 108,47.5C 106.236,49.3893 104.736,51.3893 103.5,53.5C 103.247,51.1727 103.914,49.1727 105.5,47.5C 105,47.1667 104.5,46.8333 104,46.5C 102.606,47.6133 101.439,48.9466 100.5,50.5C 99.675,51.3857 98.675,51.719 97.5,51.5C 112.371,32.9237 130.371,29.4237 151.5,41C 152.731,42.4048 154.064,43.5714 155.5,44.5 Z"/></g>
<g><path style="opacity:1" fill="#f6c4c6" d="M 123.5,38.5 C 119.185,40.4113 115.019,42.7447 111,45.5C 110.911,43.8866 111.745,42.7199 113.5,42C 116.561,39.9653 119.895,38.7986 123.5,38.5 Z"/></g>
<g><path style="opacity:1" fill="#f8f0f0" d="M 146.5,70.5 C 136.117,81.5553 125.117,82.222 113.5,72.5C 109.761,66.7029 108.595,60.3696 110,53.5C 117.059,40.3881 127.226,37.2214 140.5,44C 149.915,51.1539 151.915,59.9872 146.5,70.5 Z"/></g>
<g><path style="opacity:1" fill="#f6556a" d="M 143.5,63.5 C 143.693,60.5253 142.693,58.0253 140.5,56C 139.833,55.3333 139.167,55.3333 138.5,56C 139.38,57.3561 139.714,58.8561 139.5,60.5C 137.43,60.4486 135.597,61.1153 134,62.5C 130.153,61.2008 126.32,61.2008 122.5,62.5C 122.167,62.1667 121.833,61.8333 121.5,61.5C 122.612,60.7348 123.279,59.7348 123.5,58.5C 121.112,57.7813 119.612,56.1146 119,53.5C 118.692,54.3081 118.192,54.9747 117.5,55.5C 117.417,60.668 117.417,65.3346 117.5,69.5C 110.665,58.7716 112.665,49.9383 123.5,43C 138.118,40.6226 145.285,46.7893 145,61.5C 144.722,62.4158 144.222,63.0825 143.5,63.5 Z"/></g>
<g><path style="opacity:1" fill="#faf9f8" d="M 123.5,58.5 C 118.68,52.433 119.68,47.5997 126.5,44C 132.89,43.021 136.556,45.6877 137.5,52C 135.747,60.3761 131.08,62.5427 123.5,58.5 Z"/></g>
<g><path style="opacity:1" fill="#f9f0ef" d="M 123.5,38.5 C 135.447,35.5932 145.447,38.9265 153.5,48.5C 162.908,64.2454 160.908,78.4121 147.5,91C 133.075,99.4485 119.908,97.9485 108,86.5C 100.052,76.336 98.5516,65.336 103.5,53.5C 104.736,51.3893 106.236,49.3893 108,47.5C 107.549,49.5198 106.716,51.5198 105.5,53.5C 100.294,70.5864 105.96,82.4197 122.5,89C 141.843,91.8115 153.176,83.6448 156.5,64.5C 156.328,62.4523 155.995,60.4523 155.5,58.5C 150.406,43.271 139.739,36.6044 123.5,38.5 Z"/></g>
<g><path style="opacity:1" fill="#fa4c62" d="M 155.5,44.5 C 166.084,53.7448 170.251,65.4115 168,79.5C 164.203,97.2975 153.369,108.131 135.5,112C 111.956,112.987 97.1223,102.153 91,79.5C 89.5721,69.2938 91.7388,59.9605 97.5,51.5C 98.675,51.719 99.675,51.3857 100.5,50.5C 101.439,48.9466 102.606,47.6133 104,46.5C 104.5,46.8333 105,47.1667 105.5,47.5C 103.914,49.1727 103.247,51.1727 103.5,53.5C 98.5516,65.336 100.052,76.336 108,86.5C 119.908,97.9485 133.075,99.4485 147.5,91C 160.908,78.4121 162.908,64.2454 153.5,48.5C 153.64,46.8762 152.973,45.7096 151.5,45C 152.793,44.51 154.127,44.3433 155.5,44.5 Z"/></g>
<g><path style="opacity:1" fill="#f94a61" d="M 105.5,53.5 C 106.376,53.3691 107.043,53.7025 107.5,54.5C 107.008,61.5732 107.842,68.5732 110,75.5C 110.556,77.5951 111.056,77.7618 111.5,76C 110.591,74.2108 110.424,72.3774 111,70.5C 111.075,72.935 111.908,73.6016 113.5,72.5C 125.117,82.222 136.117,81.5553 146.5,70.5C 148.861,70.0368 150.528,68.7035 151.5,66.5C 150.236,62.8466 150.236,59.18 151.5,55.5C 152.283,57.2882 153.616,58.2882 155.5,58.5C 155.995,60.4523 156.328,62.4523 156.5,64.5C 153.176,83.6448 141.843,91.8115 122.5,89C 105.96,82.4197 100.294,70.5864 105.5,53.5 Z"/></g>
<g><path style="opacity:1" fill="#fb4960" d="M 123.5,58.5 C 123.279,59.7348 122.612,60.7348 121.5,61.5C 121.833,61.8333 122.167,62.1667 122.5,62.5C 126.32,61.2008 130.153,61.2008 134,62.5C 135.597,61.1153 137.43,60.4486 139.5,60.5C 139.714,58.8561 139.38,57.3561 138.5,56C 139.167,55.3333 139.833,55.3333 140.5,56C 142.693,58.0253 143.693,60.5253 143.5,63.5C 142.919,69.5896 139.586,73.423 133.5,75C 126.812,76.8113 121.479,74.978 117.5,69.5C 117.417,65.3346 117.417,60.668 117.5,55.5C 118.192,54.9747 118.692,54.3081 119,53.5C 119.612,56.1146 121.112,57.7813 123.5,58.5 Z"/></g>
<g><path style="opacity:1" fill="#e36573" d="M 168.5,129.5 C 169.833,129.5 171.167,129.5 172.5,129.5C 172.778,131.346 172.111,132.68 170.5,133.5C 168.889,132.68 168.222,131.346 168.5,129.5 Z"/></g>
<g><path style="opacity:1" fill="#f0a6a9" d="M 90.5,131.5 C 90.5,137.833 90.5,144.167 90.5,150.5C 93.5,150.5 96.5,150.5 99.5,150.5C 96.3752,151.479 93.0419,151.813 89.5,151.5C 89.176,144.646 89.5093,137.979 90.5,131.5 Z"/></g>
<g><path style="opacity:1" fill="#f8425b" d="M 239.5,132.5 C 240.816,135.087 241.483,138.087 241.5,141.5C 241.483,144.913 240.816,147.913 239.5,150.5C 239.5,144.5 239.5,138.5 239.5,132.5 Z"/></g>
<g><path style="opacity:1" fill="#ed6b82" d="M 239.5,132.5 C 240.209,131.596 241.209,131.263 242.5,131.5C 242.5,138.167 242.5,144.833 242.5,151.5C 241.209,151.737 240.209,151.404 239.5,150.5C 240.816,147.913 241.483,144.913 241.5,141.5C 241.483,138.087 240.816,135.087 239.5,132.5 Z"/></g>
<g><path style="opacity:1" fill="#ee7580" d="M 58.5,135.5 C 59.0998,136.9 60.0998,137.9 61.5,138.5C 59.8333,138.5 58.1667,138.5 56.5,138.5C 56.5,139.5 56.5,140.5 56.5,141.5C 59.3878,142.01 61.7211,141.344 63.5,139.5C 64.404,140.209 64.7373,141.209 64.5,142.5C 61.5,142.5 58.5,142.5 55.5,142.5C 55.8432,140.517 55.1765,139.183 53.5,138.5C 54.4006,136.273 56.0672,135.273 58.5,135.5 Z"/></g>
<g><path style="opacity:1" fill="#f2526a" d="M 134.5,135.5 C 134.827,140.544 134.494,145.544 133.5,150.5C 132.313,149.347 131.313,149.347 130.5,150.5C 121.863,152.027 118.363,148.361 120,139.5C 120.465,138.069 121.299,136.903 122.5,136C 126.579,136.001 130.579,135.834 134.5,135.5 Z"/></g>
<g><path style="opacity:1" fill="#f5f5f3" d="M 124.5,138.5 C 130.842,138.139 132.842,140.972 130.5,147C 125.736,149.811 123.069,148.478 122.5,143C 122.519,141.167 123.185,139.667 124.5,138.5 Z"/></g>
<g><path style="opacity:1" fill="#f14d66" d="M 58.5,135.5 C 64.5,135.5 67.5,138.5 67.5,144.5C 63.4454,144.176 59.4454,144.509 55.5,145.5C 58.2302,149.141 61.3969,149.474 65,146.5C 66.3636,148.603 65.5302,150.103 62.5,151C 53.8026,151.136 50.8026,146.969 53.5,138.5C 55.1765,139.183 55.8432,140.517 55.5,142.5C 58.5,142.5 61.5,142.5 64.5,142.5C 64.7373,141.209 64.404,140.209 63.5,139.5C 62.8333,139.167 62.1667,138.833 61.5,138.5C 60.0998,137.9 59.0998,136.9 58.5,135.5 Z"/></g>
<g><path style="opacity:1" fill="#faf4f6" d="M 61.5,138.5 C 62.1667,138.833 62.8333,139.167 63.5,139.5C 61.7211,141.344 59.3878,142.01 56.5,141.5C 56.5,140.5 56.5,139.5 56.5,138.5C 58.1667,138.5 59.8333,138.5 61.5,138.5 Z"/></g>
<g><path style="opacity:1" fill="#f18896" d="M 134.5,135.5 C 135.488,140.64 135.821,145.974 135.5,151.5C 133.708,151.634 132.042,151.301 130.5,150.5C 131.313,149.347 132.313,149.347 133.5,150.5C 134.494,145.544 134.827,140.544 134.5,135.5 Z"/></g>
<g><path style="opacity:1" fill="#ef4a64" d="M 176.5,135.5 C 180.079,135.92 183.746,136.086 187.5,136C 188.333,136.833 189.167,137.667 190,138.5C 190.499,142.821 190.666,147.154 190.5,151.5C 189.5,151.5 188.5,151.5 187.5,151.5C 187.665,147.818 187.499,144.152 187,140.5C 184.925,138.352 182.592,138.018 180,139.5C 179.501,143.486 179.334,147.486 179.5,151.5C 178.5,151.5 177.5,151.5 176.5,151.5C 176.5,146.167 176.5,140.833 176.5,135.5 Z"/></g>
<g><path style="opacity:1" fill="#f1556a" d="M 197.5,135.5 C 201.6,136.005 205.6,136.005 209.5,135.5C 209.666,141.842 209.5,148.175 209,154.5C 207.865,157.859 205.532,159.192 202,158.5C 198.248,159.081 195.748,157.581 194.5,154C 197.617,155.178 200.95,155.511 204.5,155C 206.515,153.445 206.848,151.611 205.5,149.5C 196.987,152.838 193.154,149.838 194,140.5C 194.997,138.677 196.164,137.01 197.5,135.5 Z"/></g>
<g><path style="opacity:1" fill="#f8f6f6" d="M 199.5,138.5 C 206.641,138.62 208.308,141.787 204.5,148C 198.498,148.993 196.332,146.493 198,140.5C 198.717,139.956 199.217,139.289 199.5,138.5 Z"/></g>
<g><path style="opacity:1" fill="#f1576d" d="M 225.5,131.5 C 226.978,131.238 228.311,131.571 229.5,132.5C 232.278,138.619 234.278,144.952 235.5,151.5C 234.5,151.5 233.5,151.5 232.5,151.5C 232.427,148.05 230.594,146.717 227,147.5C 225.5,147.833 224,148.167 222.5,148.5C 221.923,150.55 220.59,151.55 218.5,151.5C 220.437,144.69 222.77,138.023 225.5,131.5 Z"/></g>
<g><path style="opacity:1" fill="#faebea" d="M 226.5,135.5 C 227.878,138.42 229.545,141.254 231.5,144C 228.833,144.667 226.167,144.667 223.5,144C 225.196,141.413 226.196,138.579 226.5,135.5 Z"/></g>
<g><path style="opacity:1" fill="#f25269" d="M 37.5,135.5 C 45.3688,133.739 49.3688,136.739 49.5,144.5C 45.8333,144.5 42.1667,144.5 38.5,144.5C 38.33,145.822 38.6634,146.989 39.5,148C 42.7286,148.586 45.7286,148.086 48.5,146.5C 48.7804,149.388 47.4471,150.888 44.5,151C 38.2679,152.111 34.9346,149.444 34.5,143C 35.093,140.317 36.093,137.817 37.5,135.5 Z"/></g>
<g><path style="opacity:1" fill="#efa6ac" d="M 45.5,139.5 C 46.404,140.209 46.7373,141.209 46.5,142.5C 43.6146,142.806 40.9479,142.473 38.5,141.5C 41.3878,142.01 43.7211,141.344 45.5,139.5 Z"/></g>
<g><path style="opacity:1" fill="#f5f9f7" d="M 45.5,139.5 C 43.7211,141.344 41.3878,142.01 38.5,141.5C 38.4142,140.504 38.7476,139.671 39.5,139C 41.5976,138.322 43.5976,138.489 45.5,139.5 Z"/></g>
<g><path style="opacity:1" fill="#f15a6e" d="M 15.5,131.5 C 24.0421,129.599 29.7088,132.599 32.5,140.5C 30.7274,149.795 25.0608,153.462 15.5,151.5C 15.5,144.833 15.5,138.167 15.5,131.5 Z"/></g>
<g><path style="opacity:1" fill="#f9faf9" d="M 19.5,134.5 C 27.5623,133.923 30.3957,137.59 28,145.5C 27.2917,146.381 26.4584,147.047 25.5,147.5C 23.5,147.5 21.5,147.5 19.5,147.5C 19.5,143.167 19.5,138.833 19.5,134.5 Z"/></g>
<g><path style="opacity:1" fill="#fed1d1" d="M 19.5,134.5 C 19.5,138.833 19.5,143.167 19.5,147.5C 21.5,147.5 23.5,147.5 25.5,147.5C 23.3926,148.468 21.0593,148.802 18.5,148.5C 18.1805,143.637 18.5139,138.97 19.5,134.5 Z"/></g>
<g><path style="opacity:1" fill="#f34c63" d="M 71.5,135.5 C 74.7312,135.815 78.0645,135.982 81.5,136C 86.6866,138.855 87.8533,143.021 85,148.5C 82.1886,151.163 79.022,151.83 75.5,150.5C 75.44,149.957 75.1067,149.624 74.5,149.5C 73.8333,152.167 73.1667,154.833 72.5,157.5C 71.5027,150.197 71.1694,142.863 71.5,135.5 Z"/></g>
<g><path style="opacity:1" fill="#f9f1f2" d="M 75.5,138.5 C 83.2193,137.87 85.2193,140.87 81.5,147.5C 79.4841,148.706 77.4841,148.706 75.5,147.5C 74.175,144.469 74.175,141.469 75.5,138.5 Z"/></g>
<g><path style="opacity:1" fill="#ee4e67" d="M 150.5,135.5 C 154.079,135.92 157.746,136.086 161.5,136C 162.333,136.833 163.167,137.667 164,138.5C 164.499,142.821 164.666,147.154 164.5,151.5C 163.5,151.5 162.5,151.5 161.5,151.5C 161.665,147.818 161.499,144.152 161,140.5C 158.602,137.946 156.269,137.946 154,140.5C 153.501,144.152 153.335,147.818 153.5,151.5C 152.5,151.5 151.5,151.5 150.5,151.5C 150.5,146.167 150.5,140.833 150.5,135.5 Z"/></g>
<g><path style="opacity:1" fill="#ef556a" d="M 105.5,135.5 C 113.002,134.062 116.669,137.062 116.5,144.5C 112.833,144.5 109.167,144.5 105.5,144.5C 105.33,145.822 105.663,146.989 106.5,148C 109.275,148.778 111.775,148.278 114,146.5C 115.634,147.99 115.301,149.324 113,150.5C 104.12,152.287 100.453,148.62 102,139.5C 103.376,138.295 104.542,136.962 105.5,135.5 Z"/></g>
<g><path style="opacity:1" fill="#fbf0ed" d="M 108.5,137.5 C 110.394,138.048 112.06,139.048 113.5,140.5C 110.833,141.833 108.167,141.833 105.5,140.5C 106.34,139.265 107.34,138.265 108.5,137.5 Z"/></g>
<g><path style="opacity:1" fill="#f14c65" d="M 139.5,135.5 C 142.167,136.833 144.833,136.833 147.5,135.5C 147.5,136.5 147.5,137.5 147.5,138.5C 145.61,138.297 144.11,138.963 143,140.5C 142.501,144.152 142.335,147.818 142.5,151.5C 141.5,151.5 140.5,151.5 139.5,151.5C 139.5,146.167 139.5,140.833 139.5,135.5 Z"/></g>
<g><path style="opacity:1" fill="#f48998" d="M 169.5,135.5 C 170.167,155.5 170.833,155.5 171.5,135.5C 172.488,140.64 172.821,145.974 172.5,151.5C 171.167,151.5 169.833,151.5 168.5,151.5C 168.179,145.974 168.512,140.64 169.5,135.5 Z"/></g>
<g><path style="opacity:1" fill="#f7465d" d="M 169.5,135.5 C 170.167,135.5 170.833,135.5 171.5,135.5C 170.833,155.5 170.167,155.5 169.5,135.5 Z"/></g>
<g><path style="opacity:1" fill="#f5536d" d="M 90.5,131.5 C 91.5,131.5 92.5,131.5 93.5,131.5C 93.5,137.167 93.5,142.833 93.5,148.5C 96.0821,148.025 98.0821,148.692 99.5,150.5C 96.5,150.5 93.5,150.5 90.5,150.5C 90.5,144.167 90.5,137.833 90.5,131.5 Z"/></g>
<g><path style="opacity:1" fill="#ea6175" d="M 211.5,147.5 C 212.833,147.5 214.167,147.5 215.5,147.5C 215.5,148.833 215.5,150.167 215.5,151.5C 212.5,151.833 211.167,150.5 211.5,147.5 Z"/></g>
<g><path style="opacity:1" fill="#ee8295" d="M 71.5,135.5 C 71.1694,142.863 71.5027,150.197 72.5,157.5C 73.1667,154.833 73.8333,152.167 74.5,149.5C 75.1067,149.624 75.44,149.957 75.5,150.5C 74.5269,152.948 74.1936,155.615 74.5,158.5C 73.1667,158.5 71.8333,158.5 70.5,158.5C 70.1746,150.648 70.508,142.982 71.5,135.5 Z"/></g>
</svg>
