<svg xmlns="http://www.w3.org/2000/svg" xmlns:xlink="http://www.w3.org/1999/xlink" version="1.1" id="Layer_1" x="0px" y="0px" style="enable-background:new 0 0 792 216;" xml:space="preserve" viewBox="262.1 63.82 267.81 88.35" transform="matrix(1, 0, 0, 1, 0, 0)">
<style type="text/css">
	.st0{fill:#064163;}
	.st1{fill:#FFFFFF;}
</style>
<g>
	<g>
		<path d="M312,82.38c-14.62,0-24.43,8.51-24.43,25.04v11.77c1.44-0.69,3.04-1.08,4.73-1.08c1.72,0,3.33,0.4,4.78,1.11v-11.8    c0-10.72,5.91-16.22,14.92-16.22c9.01,0,14.92,5.51,14.92,16.22v25.74h9.51v-25.74C336.43,90.79,326.62,82.38,312,82.38z" fill="#000000"/>
		<path d="M341.62,108.41c0-15.02,11.02-26.04,26.64-26.04c15.62,0,26.44,11.02,26.44,26.04v3.5h-43.06    c1.4,8.81,8.01,13.72,16.62,13.72c6.41,0,10.92-2,13.82-6.31h10.51c-3.81,9.21-12.82,15.12-24.33,15.12    C352.64,134.45,341.62,123.44,341.62,108.41z M384.68,103.41c-1.9-7.91-8.41-12.22-16.42-12.22c-8.21,0-14.42,4.41-16.32,12.22    H384.68z" fill="#000000"/>
		<path d="M399.79,108.42c0-15.02,11.02-26.04,26.64-26.04c15.62,0,26.64,11.02,26.64,26.04c0,15.02-11.02,26.04-26.64,26.04    C410.8,134.46,399.79,123.44,399.79,108.42z M443.45,108.42c0-10.01-6.81-17.22-17.02-17.22s-17.02,7.21-17.02,17.22    s6.81,17.22,17.02,17.22S443.45,118.43,443.45,108.42z" fill="#000000"/>
		<path d="M507.47,143h1.1c6.11,0,8.41-2.71,8.41-9.72V84.03h9.51v48.65c0,12.22-4.81,18.53-17.02,18.53h-2V143z" fill="#000000"/>
		<path d="M502.7,137.91h-9.51v-11.73h-24.12c-4.81,0-8.99-2.36-10.9-6.16c-1.79-3.55-1.3-7.77,1.3-11.27l21.68-28.41    c3.12-4.21,8.36-5.88,13.34-4.23c4.98,1.64,8.21,6.08,8.22,11.33v30.3h7.15v8.44h-7.15V137.91z M467.42,113.95    c-0.28,0.39-0.45,0.87-0.45,1.39c0,1.33,1.06,2.39,2.39,2.39h0.03h23.8V87.2c0-1.58-1.15-2.15-1.65-2.32    c-0.19-0.06-0.51-0.12-0.86-0.12c-0.58,0-1.3,0.2-1.89,1L467.42,113.95L467.42,113.95z" fill="#000000"/>
		<g>
			<path class="st0" d="M521.77,63.82c-4.49,0-8.14,3.65-8.14,8.14c0,4.49,3.65,8.14,8.14,8.14c4.49,0,8.14-3.65,8.14-8.14     C529.91,67.47,526.26,63.82,521.77,63.82z" fill="#000000"/>
			<path class="st0" d="M291.92,121.08c-1.84,0-3.53,0.62-4.89,1.65l-8.96-6.12c0.2-0.7,0.31-1.44,0.31-2.2     c0-4.49-3.65-8.14-8.14-8.14c-4.49,0-8.14,3.65-8.14,8.14c0,4.49,3.65,8.14,8.14,8.14c1.84,0,3.53-0.62,4.89-1.65l8.96,6.12     c-0.2,0.7-0.31,1.44-0.31,2.2c0,0.76,0.11,1.5,0.31,2.2l-8.96,6.12c-1.36-1.03-3.06-1.65-4.89-1.65c-4.49,0-8.14,3.65-8.14,8.14     c0,4.49,3.65,8.14,8.14,8.14c4.49,0,8.14-3.65,8.14-8.14c0-0.76-0.11-1.5-0.31-2.2l8.96-6.12c1.36,1.03,3.06,1.65,4.89,1.65     c4.49,0,8.14-3.65,8.14-8.14C300.06,124.73,296.41,121.08,291.92,121.08z" fill="#000000"/>
		</g>
	</g>
</g>
</svg>